# xmcd
#
# Track frame offsets:
#	150
#	10943
#	22492
#	34404
#	46474
#	58503
#	69263
#	95085
#	113228
#	137329
#	165324
#	183691
#	208312
#	228582
#	248224
#	260854
#	276917
#	287356
#	299748
#	310533
#	323367
#	334217
#	344718
#
# Disc length: 4769 seconds
#
# Revision: 0
# Processed by: cddbd v1.5PL3 Copyright (c) Steve Scherf et al.
# Submitted via: audiograbber 1.80
#
DISCID=6b129f17
DTITLE=frankie laine - `I Believe cd5
DYEAR=1900
DGENRE=
TTITLE0=Ticky Ticky Tick (I'm Gonna Tell On You) 
TTITLE1=The Thief 
TTITLE2=Hummingbird 
TTITLE3=Hummingbird 
TTITLE4=Hawk-Eye 
TTITLE5=A Woman In Love 
TTITLE6=You Can Depend On Me 
TTITLE7=S'posin' 
TTITLE8=Stars Fell On Alabama 
TTITLE9=That Old Feeling 
TTITLE10=Baby, Baby All The Time 
TTITLE11=Roses Of Picardy 
TTITLE12=If You Were Mine 
TTITLE13=Until The Real Thing Comes Along 
TTITLE14=Taking A Chance On Love 
TTITLE15=Where Can I Go (& The Four Lads) 
TTITLE16=Didn't He Moan (& The Four Lads) 
TTITLE17=Remember Me (& The Four Lads) 
TTITLE18=I Heard The Angels Singing (& Four Lads) 
TTITLE19=Robin Hood 
TTITLE20=Moby Dick 
TTITLE21=Champion The Wonder Horse 
TTITLE22=Sixteen Tons 
EXTD=
EXTT0=
EXTT1=
EXTT2=
EXTT3=
EXTT4=
EXTT5=
EXTT6=
EXTT7=
EXTT8=
EXTT9=
EXTT10=
EXTT11=
EXTT12=
EXTT13=
EXTT14=
EXTT15=
EXTT16=
EXTT17=
EXTT18=
EXTT19=
EXTT20=
EXTT21=
EXTT22=
PLAYORDER=
